HIERARCHY
ROOT Model
{
	OFFSET 0 0 0
	CHANNELS 6 Xposition Yposition Zposition Zrotation Xrotation Yrotation
	JOINT Model1
	{
		OFFSET 0 -2.25479 2.99384
		CHANNELS 3 Zrotation Xrotation Yrotation
		JOINT Model2
		{
			OFFSET 12.111 0 0
			CHANNELS 3 Zrotation Xrotation Yrotation
			JOINT Model3
			{
				OFFSET 11.5502 0 0
				CHANNELS 3 Zrotation Xrotation Yrotation
				JOINT Model4
				{
					OFFSET 11.781 0 0
					CHANNELS 3 Zrotation Xrotation Yrotation
					JOINT Model5
					{
						OFFSET 20.0601 0 0
						CHANNELS 3 Zrotation Xrotation Yrotation
						JOINT Model6
						{
							OFFSET 11.1962 0 0
							CHANNELS 3 Zrotation Xrotation Yrotation
							End Site
							{
								OFFSET 0 0 0
							}
						}
					}
					JOINT Model7
					{
						OFFSET 10.8223 0.417534 3.51114
						CHANNELS 3 Zrotation Xrotation Yrotation
						JOINT Model8
						{
							OFFSET -6.07944 0 0
							CHANNELS 3 Zrotation Xrotation Yrotation
							JOINT Model9
							{
								OFFSET -0.277405 10.39 -0.051239
								CHANNELS 3 Zrotation Xrotation Yrotation
								JOINT Model10
								{
									OFFSET -3.43909 -0.282043 1.86679
									CHANNELS 3 Zrotation Xrotation Yrotation
									JOINT Model11
									{
										OFFSET 13.0269 0 0
										CHANNELS 3 Zrotation Xrotation Yrotation
										JOINT Model12
										{
											OFFSET 10.8866 0 0
											CHANNELS 3 Zrotation Xrotation Yrotation
											JOINT Model13
											{
												OFFSET 16.7317 0 0
												CHANNELS 3 Zrotation Xrotation Yrotation
												JOINT Model14
												{
													OFFSET 11.8292 0 0
													CHANNELS 3 Zrotation Xrotation Yrotation
													JOINT Model15
													{
														OFFSET 4.82751 -3.73566 -0.836517
														CHANNELS 3 Zrotation Xrotation Yrotation
														JOINT Model16
														{
															OFFSET 3.75311 -0.0582886 -0.0186462
															CHANNELS 3 Zrotation Xrotation Yrotation
															JOINT Model17
															{
																OFFSET 2.88689 0.0192337 0.014801
																CHANNELS 3 Zrotation Xrotation Yrotation
																End Site
																{
																	OFFSET 0 0 0
																}
															}
														}
													}
													JOINT Model18
													{
														OFFSET 9.72197 -3.06458 0.23877
														CHANNELS 3 Zrotation Xrotation Yrotation
														JOINT Model19
														{
															OFFSET 4.61131 0 0
															CHANNELS 3 Zrotation Xrotation Yrotation
															JOINT Model20
															{
																OFFSET 2.8969 -7.62939e-006 0
																CHANNELS 3 Zrotation Xrotation Yrotation
																End Site
																{
																	OFFSET 0 0 0
																}
															}
														}
													}
													JOINT Model21
													{
														OFFSET 9.54431 -0.745064 0.588928
														CHANNELS 3 Zrotation Xrotation Yrotation
														JOINT Model22
														{
															OFFSET 5.33978 0 0
															CHANNELS 3 Zrotation Xrotation Yrotation
															JOINT Model23
															{
																OFFSET 3.03619 7.62939e-006 0
																CHANNELS 3 Zrotation Xrotation Yrotation
																End Site
																{
																	OFFSET 0 0 0
																}
															}
														}
													}
													JOINT Model24
													{
														OFFSET 9.47758 1.51286 0.485107
														CHANNELS 3 Zrotation Xrotation Yrotation
														JOINT Model25
														{
															OFFSET 4.96136 7.62939e-006 0
															CHANNELS 3 Zrotation Xrotation Yrotation
															JOINT Model26
															{
																OFFSET 2.51965 0 0
																CHANNELS 3 Zrotation Xrotation Yrotation
																End Site
																{
																	OFFSET 0 0 0
																}
															}
														}
													}
													JOINT Model27
													{
														OFFSET 9.34247 3.34117 -0.239288
														CHANNELS 3 Zrotation Xrotation Yrotation
														JOINT Model28
														{
															OFFSET 3.28259 2.28882e-005 0
															CHANNELS 3 Zrotation Xrotation Yrotation
															JOINT Model29
															{
																OFFSET 2.1292 0 0
																CHANNELS 3 Zrotation Xrotation Yrotation
																End Site
																{
																	OFFSET 0 0 0
																}
															}
														}
													}
												}
											}
										}
									}
								}
							}
						}
					}
					JOINT Model30
					{
						OFFSET 10.8223 0.4179 -3.51108
						CHANNELS 3 Zrotation Xrotation Yrotation
						JOINT Model31
						{
							OFFSET 6.07944 0 0
							CHANNELS 3 Zrotation Xrotation Yrotation
							JOINT Model32
							{
								OFFSET 0.277405 -10.39 0.051239
								CHANNELS 3 Zrotation Xrotation Yrotation
								JOINT Model33
								{
									OFFSET 3.43909 0.282043 -1.86679
									CHANNELS 3 Zrotation Xrotation Yrotation
									JOINT Model34
									{
										OFFSET -13.0269 0 0
										CHANNELS 3 Zrotation Xrotation Yrotation
										JOINT Model35
										{
											OFFSET -10.8866 0 0
											CHANNELS 3 Zrotation Xrotation Yrotation
											JOINT Model36
											{
												OFFSET -16.7317 0 0
												CHANNELS 3 Zrotation Xrotation Yrotation
												JOINT Model37
												{
													OFFSET -11.8292 0 0
													CHANNELS 3 Zrotation Xrotation Yrotation
													JOINT Model38
													{
														OFFSET -4.82751 3.73566 0.836517
														CHANNELS 3 Zrotation Xrotation Yrotation
														JOINT Model39
														{
															OFFSET -3.75311 0.0582886 0.0186462
															CHANNELS 3 Zrotation Xrotation Yrotation
															JOINT Model40
															{
																OFFSET -2.88687 -0.0192337 -0.014801
																CHANNELS 3 Zrotation Xrotation Yrotation
																End Site
																{
																	OFFSET 0 0 0
																}
															}
														}
													}
													JOINT Model41
													{
														OFFSET -9.72198 3.06459 -0.23877
														CHANNELS 3 Zrotation Xrotation Yrotation
														JOINT Model42
														{
															OFFSET -4.6113 0 0
															CHANNELS 3 Zrotation Xrotation Yrotation
															JOINT Model43
															{
																OFFSET -2.89691 0 0
																CHANNELS 3 Zrotation Xrotation Yrotation
																End Site
																{
																	OFFSET 0 0 0
																}
															}
														}
													}
													JOINT Model44
													{
														OFFSET -9.54431 0.745064 -0.588928
														CHANNELS 3 Zrotation Xrotation Yrotation
														JOINT Model45
														{
															OFFSET -5.33978 0 0
															CHANNELS 3 Zrotation Xrotation Yrotation
															JOINT Model46
															{
																OFFSET -3.03619 -1.52588e-005 0
																CHANNELS 3 Zrotation Xrotation Yrotation
																End Site
																{
																	OFFSET 0 0 0
																}
															}
														}
													}
													JOINT Model47
													{
														OFFSET -9.4776 -1.51286 -0.485107
														CHANNELS 3 Zrotation Xrotation Yrotation
														JOINT Model48
														{
															OFFSET -4.96136 -1.52588e-005 0
															CHANNELS 3 Zrotation Xrotation Yrotation
															JOINT Model49
															{
																OFFSET -2.51965 0 0
																CHANNELS 3 Zrotation Xrotation Yrotation
																End Site
																{
																	OFFSET 0 0 0
																}
															}
														}
													}
													JOINT Model50
													{
														OFFSET -9.34247 -3.34118 0.239288
														CHANNELS 3 Zrotation Xrotation Yrotation
														JOINT Model51
														{
															OFFSET -3.28259 -2.28882e-005 0
															CHANNELS 3 Zrotation Xrotation Yrotation
															JOINT Model52
															{
																OFFSET -2.12921 0 0
																CHANNELS 3 Zrotation Xrotation Yrotation
																End Site
																{
																	OFFSET 0 0 0
																}
															}
														}
													}
												}
											}
										}
									}
								}
							}
						}
					}
				}
			}
		}
	}
	JOINT Model53
	{
		OFFSET 4.38025 -2.14632 -1.11517
		CHANNELS 3 Zrotation Xrotation Yrotation
		JOINT Model54
		{
			OFFSET 0 0 4.94998
			CHANNELS 3 Zrotation Xrotation Yrotation
			JOINT Model55
			{
				OFFSET 18.5642 0 0
				CHANNELS 3 Zrotation Xrotation Yrotation
				JOINT Model56
				{
					OFFSET 21.2884 0 0
					CHANNELS 3 Zrotation Xrotation Yrotation
					JOINT Model57
					{
						OFFSET 30.261 0 0
						CHANNELS 3 Zrotation Xrotation Yrotation
						JOINT Model58
						{
							OFFSET 11.7259 0 0
							CHANNELS 3 Zrotation Xrotation Yrotation
							JOINT Model59
							{
								OFFSET 10.682 0 0
								CHANNELS 3 Zrotation Xrotation Yrotation
								End Site
								{
									OFFSET 0 0 0
								}
							}
						}
					}
				}
			}
		}
	}
	JOINT Model60
	{
		OFFSET -4.38025 -2.14632 -1.11517
		CHANNELS 3 Zrotation Xrotation Yrotation
		JOINT Model61
		{
			OFFSET 0 0 -4.94998
			CHANNELS 3 Zrotation Xrotation Yrotation
			JOINT Model62
			{
				OFFSET -18.5642 0 0
				CHANNELS 3 Zrotation Xrotation Yrotation
				JOINT Model63
				{
					OFFSET -21.2884 0 0
					CHANNELS 3 Zrotation Xrotation Yrotation
					JOINT Model64
					{
						OFFSET -30.261 0 0
						CHANNELS 3 Zrotation Xrotation Yrotation
						JOINT Model65
						{
							OFFSET -11.7259 0 0
							CHANNELS 3 Zrotation Xrotation Yrotation
							JOINT Model66
							{
								OFFSET -10.682 0 0
								CHANNELS 3 Zrotation Xrotation Yrotation
								End Site
								{
									OFFSET 0 0 0
								}
							}
						}
					}
				}
			}
		}
	}
}
MOTION
Frames: 4
Frame Time: 0.033333
-321.218 172.75 -342.684 93.2542 -42.8629 94.5118 -180 4.29621e-031 -90 0.293955 1.72542 -0.553296 0.604976 3.44745 -1.1162 0.604977 3.44789 -1.11621 7.58848 -22.6816 16.8667 11.7069 -19.8115 3.52424 120.092 75.5343 58.4939 -9.24089 -1.24297 1.44777 -167.277 84.4999 48.8109 -171.42 9.06803 12.9808 -7.64385e-006 31.801 3.50393e-005 -0.963773 -11.3801 -4.6297 1.65804e-007 -17.0632 9.32572e-009 1.91981 0.126315 7.52813 -72.0648 39.0385 39.3397 33.3638 2.10362 14.835 0.588947 0.308273 6.35287 -99.6409 81.413 100.35 -0.0181409 2.77852e-005 -0.117315 -0.124139 0.00241113 -0.799296 -79.8382 79.5773 80.5374 -0.000225774 -0.000220916 2.21963e-005 -0.000956223 0.000122903 -2.73182e-005 -66.7416 80.4058 67.2171 -0.00043713 1.5952e-005 -2.73189e-005 -0.000136601 -0.000109282 -5.46391e-005 -6.42159 81.2158 8.01779 -0.000218563 1.69084e-005 0.000212142 0.000901588 -0.000184801 -0.000218564 -59.9282 75.5373 58.5147 0.663534 9.06002 2.92519 -167.277 84.4999 48.8109 137.196 -10.9381 -33.9369 7.66408e-006 -1.3772 2.90895e-005 -11.162 -10.0711 0.0431797 -4.84973e-006 -15.2859 2.8038e-006 13.7173 -0.312382 -2.59671 -72.0648 39.0385 39.3397 33.3638 2.10361 14.835 0.588946 0.308273 6.35287 -99.6409 81.413 100.35 -0.0181409 3.00832e-005 -0.117315 -0.124139 0.00241114 -0.799296 -79.8382 79.5773 80.5374 -0.000260637 -0.000218561 2.35588e-005 -0.000956214 0.000123004 -2.73364e-005 -66.7416 80.4058 67.2171 -0.000437123 1.48865e-005 -2.73328e-005 -0.000136591 -0.000109276 -5.46578e-005 -6.42158 81.2158 8.01778 -0.000218558 1.95822e-005 0.000212283 0.000901595 -0.000191241 -0.000218584 0.000811311 0.56661 89.91 -11.5853 -4.51122 -19.013 6.4578e-007 6.44389 -6.17348e-009 33.9267 4.26342 0.0259653 -1.38135e-007 6.33124 -1.79538e-007 -74.0991 -5.42782 1.43771 -35.4947 1.25909e-006 -2.64856e-007 -180 -0.566579 -90.09 -16.8824 -8.45108 -18.323 -1.05263e-006 -1.50606 -4.14802e-008 22.3102 -5.91217 -4.19163 2.49865e-007 -8.93289 -2.92422e-007 -47.1596 -6.90809 5.42036 -35.4947 5.41059e-005 5.93502e-006 
-321.175 172.727 -342.769 93.2577 -42.9639 94.4332 -180 4.29621e-031 -90 0.340099 1.76974 -0.595846 0.699091 3.53537 -1.20306 0.699091 3.5358 -1.20306 7.62009 -22.7262 16.9457 11.8408 -19.8412 3.6369 120.092 75.5343 58.4939 -9.20196 -0.901876 1.57755 -167.277 84.4999 48.8109 -172.628 9.985 14.6168 -8.1044e-006 32.4366 3.52842e-005 -1.19663 -10.4487 -4.13071 1.65567e-007 -15.6605 9.25893e-009 0.407042 0.0299309 8.41133 -72.0648 39.0385 39.3397 33.3638 2.10362 14.835 0.588947 0.308273 6.35287 -99.6409 81.413 100.35 -0.0181409 2.77852e-005 -0.117315 -0.124139 0.00241113 -0.799296 -79.8382 79.5773 80.5374 -0.000225774 -0.000220916 2.21963e-005 -0.000956223 0.000122903 -2.73182e-005 -66.7416 80.4058 67.2171 -0.00043713 1.5952e-005 -2.73189e-005 -0.000136601 -0.000109282 -5.46391e-005 -6.42159 81.2158 8.01779 -0.000218563 1.69084e-005 0.000212142 0.000901588 -0.000184801 -0.000218564 -59.9282 75.5373 58.5147 0.607652 8.84298 2.87459 -167.277 84.4999 48.8109 137.38 -11.0858 -33.8947 7.71678e-006 -1.48096 2.90909e-005 -11.97 -10.3157 0.0502247 -4.83026e-006 -15.6689 2.80899e-006 14.1816 -0.330737 -2.65838 -72.0648 39.0385 39.3397 33.3638 2.10361 14.835 0.588946 0.308273 6.35287 -99.6409 81.413 100.35 -0.0181409 3.00832e-005 -0.117315 -0.124139 0.00241114 -0.799296 -79.8382 79.5773 80.5374 -0.000260637 -0.000218561 2.35588e-005 -0.000956214 0.000123004 -2.73364e-005 -66.7416 80.4058 67.2171 -0.000437123 1.48865e-005 -2.73328e-005 -0.000136591 -0.000109276 -5.46578e-005 -6.42158 81.2157 8.01778 -0.000218558 1.95822e-005 0.000212283 0.000901595 -0.000191241 -0.000218584 0.000811311 0.56661 89.91 -11.4947 -4.19511 -18.6606 6.45807e-007 6.69699 -6.17662e-009 34.0729 3.97181 0.0329122 -1.39514e-007 5.89354 -1.79391e-007 -74.1558 -5.5369 1.48401 -35.4947 1.307e-006 -2.1523e-007 -180 -0.566579 -90.09 -17.0233 -8.55364 -18.4929 -1.05269e-006 -1.59636 -4.1482e-008 22.2947 -5.77389 -4.2428 2.50936e-007 -8.72546 -2.92257e-007 -47.0847 -6.86446 5.39611 -35.4947 5.377e-005 6.0694e-006 
-321.154 172.717 -342.8 93.2078 -42.9262 94.3353 -180 4.29621e-031 -90 0.348693 1.79323 -0.643431 0.718038 3.58196 -1.29873 0.718039 3.5824 -1.29873 7.79352 -22.9485 17.2331 11.9642 -20.0471 3.54245 120.092 75.5343 58.4939 -9.16295 -0.52978 1.71927 -167.277 84.4999 48.8109 -173.764 10.8091 15.9273 -8.62851e-006 33.1492 3.55681e-005 -2.00881 -8.6078 -3.8283 1.65111e-007 -12.9103 9.14644e-009 -1.32201 -0.09155 7.92248 -72.0648 39.0385 39.3397 33.3638 2.10362 14.835 0.588947 0.308273 6.35287 -99.6409 81.413 100.35 -0.0181409 2.77852e-005 -0.117315 -0.124139 0.00241113 -0.799296 -79.8382 79.5773 80.5374 -0.000225774 -0.000220916 2.21963e-005 -0.000956223 0.000122903 -2.73182e-005 -66.7416 80.4058 67.2171 -0.00043713 1.5952e-005 -2.73189e-005 -0.000136601 -0.000109282 -5.46391e-005 -6.42159 81.2158 8.01779 -0.000218563 1.69084e-005 0.000212142 0.000901588 -0.000184801 -0.000218564 -59.9282 75.5373 58.5147 0.52042 8.26353 2.72301 -167.277 84.4999 48.8109 136.411 -10.5692 -33.8301 7.60996e-006 -1.27063 2.90883e-005 -10.4873 -10.3866 0.0301638 -4.82636e-006 -15.7454 2.81005e-006 13.1621 -0.296717 -2.57152 -72.0648 39.0385 39.3397 33.3638 2.10361 14.835 0.588946 0.308273 6.35287 -99.6409 81.413 100.35 -0.0181409 3.00832e-005 -0.117315 -0.124139 0.00241114 -0.799296 -79.8382 79.5773 80.5374 -0.000260637 -0.000218561 2.35588e-005 -0.000956214 0.000123004 -2.73364e-005 -66.7416 80.4058 67.2171 -0.000437123 1.48865e-005 -2.73328e-005 -0.000136591 -0.000109276 -5.46578e-005 -6.42157 81.2157 8.01777 -0.000218558 1.95822e-005 0.000212283 0.000901595 -0.000191241 -0.000218584 0.000811311 0.56661 89.91 -11.4093 -3.7628 -18.2972 6.45853e-007 7.114 -6.18207e-009 34.1475 3.62137 0.0713765 -1.41167e-007 5.36774 -1.79229e-007 -74.1682 -5.68522 1.5528 -35.4947 1.35168e-006 -1.57511e-007 -180 -0.566579 -90.09 -17.1468 -8.68188 -18.6732 -1.05278e-006 -1.7149 -4.14845e-008 22.3449 -5.67936 -4.22131 2.5167e-007 -8.58313 -2.92147e-007 -47.0862 -6.8158 5.35693 -35.4947 5.34273e-005 6.20346e-006 
-321.147 172.72 -342.781 93.1545 -42.8427 94.2652 -180 4.29621e-031 -90 0.339593 1.77605 -0.680562 0.700772 3.54747 -1.37264 0.700772 3.54791 -1.37264 7.9289 -23.0917 17.3674 12.1539 -20.1869 3.50366 120.092 75.5343 58.4939 -9.22473 -0.30362 1.82047 -167.277 84.4999 48.8109 -174.637 11.2656 16.6866 -8.94722e-006 33.577 3.57434e-005 -3.14568 -7.07464 -3.73085 1.64741e-007 -10.633 9.07098e-009 -2.71027 -0.170681 7.2056 -72.0648 39.0385 39.3397 33.3638 2.10362 14.835 0.588947 0.308273 6.35287 -99.6409 81.413 100.35 -0.0181409 2.77852e-005 -0.117315 -0.124139 0.00241113 -0.799296 -79.8382 79.5773 80.5374 -0.000225774 -0.000220916 2.21963e-005 -0.000956223 0.000122903 -2.73182e-005 -66.7416 80.4058 67.2171 -0.00043713 1.5952e-005 -2.73189e-005 -0.000136601 -0.000109282 -5.46391e-005 -6.42159 81.2158 8.01779 -0.000218563 1.69084e-005 0.000212142 0.000901588 -0.000184801 -0.000218564 -59.9282 75.5373 58.5147 0.36687 7.83541 2.63199 -167.277 84.4999 48.8109 134.513 -9.48722 -33.9434 7.37088e-006 -0.799739 2.9084e-005 -6.93586 -10.3438 -0.0126197 -4.83341e-006 -15.607 2.80814e-006 11.2983 -0.220938 -2.23334 -72.0648 39.0385 39.3397 33.3638 2.10361 14.835 0.588946 0.308273 6.35287 -99.6409 81.413 100.35 -0.0181409 3.00832e-005 -0.117315 -0.124139 0.00241114 -0.799296 -79.8382 79.5773 80.5374 -0.000260637 -0.000218561 2.35588e-005 -0.000956214 0.000123004 -2.73364e-005 -66.7416 80.4058 67.2171 -0.000437123 1.48865e-005 -2.73328e-005 -0.000136591 -0.000109276 -5.46578e-005 -6.42157 81.2157 8.01777 -0.000218558 1.95822e-005 0.000212283 0.000901595 -0.000191241 -0.000218584 0.000811311 0.56661 89.91 -11.4114 -3.61003 -18.1926 6.4587e-007 7.2685 -6.18417e-009 34.1394 3.53497 0.117433 -1.41574e-007 5.23815 -1.79191e-007 -74.0654 -5.67912 1.5595 -35.4947 1.39302e-006 -9.31451e-008 -180 -0.566579 -90.09 -17.1631 -8.6617 -18.7163 -1.05274e-006 -1.66244 -4.14833e-008 22.4023 -5.74371 -4.18425 2.51173e-007 -8.67963 -2.92222e-007 -47.1044 -6.80299 5.3441 -35.4947 5.30779e-005 6.33716e-006 
